<?xml version="1.0" standalone="no"?>
<!DOCTYPE svg PUBLIC "-//W3C//DTD SVG 20010904//EN"
 "http://www.w3.org/TR/2001/REC-SVG-20010904/DTD/svg10.dtd">
<svg version="1.0" xmlns="http://www.w3.org/2000/svg"
 width="512.000000pt" height="512.000000pt" viewBox="0 0 512.000000 512.000000"
 preserveAspectRatio="xMidYMid meet">
<metadata>
Created by potrace 1.14, written by Peter Selinger 2001-2017
</metadata>
<g transform="translate(0.000000,512.000000) scale(0.100000,-0.100000)"
fill="#000000" stroke="none">
<path d="M320 4859 c-25 -9 -60 -58 -60 -85 0 -8 -5 -14 -12 -14 -6 0 -9 -3
-6 -6 4 -3 2 -19 -3 -36 -19 -66 -23 -119 -21 -268 1 -180 5 -250 12 -250 3 0
5 -12 5 -27 -1 -16 3 -34 8 -40 5 -7 7 -13 5 -13 -3 0 -1 -21 4 -47 11 -55 20
-112 21 -130 0 -7 3 -13 7 -13 5 0 11 -37 14 -87 1 -11 4 -19 8 -16 5 2 8 -4
9 -14 2 -58 157 -572 181 -600 6 -7 7 -13 3 -13 -4 0 -1 -10 7 -22 18 -30 16
-52 -11 -110 -11 -26 -21 -53 -21 -60 0 -8 -4 -18 -9 -24 -8 -8 -69 -227 -77
-279 -2 -11 -5 -27 -7 -35 -2 -8 -9 -55 -17 -105 -7 -49 -17 -96 -23 -103 -6
-8 -6 -12 2 -12 7 0 9 -5 6 -11 -9 -13 -16 -59 -18 -110 -1 -21 -4 -39 -7 -39
-3 0 -6 -12 -6 -27 -1 -32 -12 -138 -14 -138 -1 0 -2 -18 -3 -40 -2 -22 -6
-46 -10 -52 -5 -8 -3 -13 3 -13 7 0 8 -6 2 -17 -9 -19 -8 -268 1 -315 6 -28
-16 -63 -32 -53 -14 8 -42 -31 -44 -61 -3 -40 27 -72 63 -69 31 3 43 -16 54
-80 13 -79 43 -158 76 -205 36 -51 41 -58 83 -103 20 -23 37 -43 37 -47 0 -3
-20 -14 -43 -24 -23 -10 -70 -36 -104 -57 -34 -22 -64 -39 -67 -39 -2 0 -20
-14 -39 -31 -29 -25 -35 -37 -31 -61 6 -50 32 -71 77 -64 21 4 48 15 59 26 12
11 30 22 40 26 10 3 18 9 18 13 0 4 16 13 35 20 19 7 35 17 35 22 0 5 4 9 9 9
5 0 30 10 57 22 27 12 56 21 64 19 8 -2 35 -23 60 -46 25 -24 56 -53 70 -65
14 -11 47 -40 74 -63 27 -23 58 -48 70 -56 12 -8 25 -21 29 -28 4 -7 13 -13
18 -13 6 0 17 -6 24 -12 28 -26 42 -35 104 -76 35 -23 68 -39 74 -35 6 3 7 2
4 -4 -7 -11 142 -91 283 -151 118 -51 320 -123 320 -114 0 3 5 1 12 -6 7 -7
22 -12 35 -12 13 0 23 -4 23 -10 0 -5 6 -7 13 -4 7 2 31 -2 54 -10 23 -8 44
-12 47 -9 3 4 6 1 6 -5 0 -6 7 -9 15 -6 8 3 20 2 27 -2 7 -4 19 -9 28 -10 8
-1 29 -5 45 -8 17 -4 41 -9 55 -12 36 -6 65 -12 65 -14 0 -2 96 -12 128 -14
15 0 27 -4 27 -7 0 -7 -2 -7 173 -12 81 -3 149 -2 151 2 2 3 25 6 50 5 25 0
46 2 46 6 0 3 16 6 35 5 19 -1 35 1 35 4 0 3 15 7 33 8 29 1 85 9 97 13 3 2 9
2 13 1 4 -1 17 3 27 9 15 8 20 8 20 -2 0 -9 2 -10 8 -2 4 7 23 15 42 18 19 3
50 10 68 15 17 5 32 8 32 5 0 -2 17 3 38 11 31 12 103 33 137 41 32 7 121 38
129 45 6 5 16 9 24 9 30 0 406 168 422 189 3 3 22 15 43 26 20 11 37 24 37 29
0 5 3 6 6 3 4 -4 15 3 25 14 9 11 20 19 23 17 6 -3 119 82 124 94 2 4 8 8 13
8 5 0 19 9 31 19 13 11 34 29 48 41 63 53 146 127 165 147 11 11 27 23 35 24
14 3 168 -68 180 -82 3 -3 22 -14 42 -24 21 -9 38 -21 38 -26 0 -5 7 -9 15 -9
8 0 15 -4 15 -8 0 -4 15 -9 34 -10 27 -2 39 3 55 24 27 34 21 71 -18 104 -40
34 -191 123 -208 123 -7 0 -13 6 -13 13 0 8 -6 11 -15 7 -13 -5 -14 -2 -4 21
7 14 16 26 20 26 8 0 113 136 115 148 0 4 6 19 12 33 10 25 30 95 37 129 2 8
4 15 5 15 1 0 3 12 4 26 4 37 13 47 39 42 28 -6 63 23 71 58 6 29 -25 72 -62
83 -18 6 -20 12 -15 54 13 99 7 310 -13 477 -2 17 -6 50 -8 75 -7 59 -15 118
-22 155 -3 17 -7 50 -10 75 -5 43 -10 79 -14 90 -1 3 -2 9 -1 13 1 5 -3 25 -8
45 -6 20 -13 56 -16 79 -6 44 -41 186 -52 213 -3 8 -8 23 -9 32 -2 9 -15 42
-28 72 -14 31 -22 56 -19 56 3 0 -1 8 -10 18 -21 23 -21 20 3 82 12 30 23 62
25 71 2 8 10 32 19 52 8 20 13 37 11 37 -2 0 7 27 20 60 13 33 21 60 18 60 -3
0 0 7 7 15 7 8 10 15 7 15 -4 0 1 19 9 43 9 23 17 49 19 57 2 12 18 70 30 110
1 3 8 33 15 68 8 34 17 62 21 62 4 0 5 9 2 20 -3 11 -1 20 4 20 5 0 8 12 8 28
-1 15 2 32 6 37 6 9 13 42 25 125 8 56 11 75 13 75 3 0 10 48 17 115 8 75 11
380 4 380 -3 0 -7 16 -8 37 -2 20 -6 41 -10 47 -3 6 -8 19 -9 28 -2 10 -12 38
-24 63 -17 36 -28 47 -58 54 -34 9 -93 8 -129 -3 -9 -3 -33 -8 -52 -11 -46 -7
-218 -66 -316 -109 -86 -37 -276 -128 -284 -136 -3 -3 -31 -18 -62 -35 -32
-16 -58 -33 -58 -37 0 -5 -9 -8 -19 -8 -11 0 -21 -3 -23 -7 -1 -5 -41 -33 -87
-63 -78 -50 -138 -94 -230 -168 -45 -35 -211 -202 -211 -211 0 -7 -36 -7 -50
0 -3 1 -9 3 -15 4 -5 1 -17 5 -25 8 -16 6 -95 28 -120 33 -8 2 -26 5 -40 8
-14 2 -25 5 -25 6 0 3 -71 13 -97 14 -16 1 -28 3 -28 7 0 3 -10 5 -22 6 -13 1
-34 3 -48 6 -14 3 -56 8 -94 11 -39 4 -72 9 -74 11 -3 2 -13 0 -23 -5 -10 -6
-20 -7 -22 -2 -6 9 -144 9 -153 -1 -4 -3 -14 -2 -24 3 -10 5 -20 7 -23 4 -2
-3 -29 -7 -58 -10 -30 -2 -74 -7 -99 -10 -25 -4 -55 -7 -67 -7 -13 -1 -23 -4
-23 -8 0 -3 -11 -4 -25 -1 -14 2 -25 0 -25 -5 0 -5 -15 -9 -32 -10 -18 -1 -46
-4 -63 -8 -16 -4 -37 -8 -45 -10 -8 -2 -16 -4 -17 -5 -2 -2 -7 -4 -13 -5 -5
-1 -13 -4 -17 -5 -5 -1 -11 -2 -16 -1 -4 1 -23 -5 -42 -13 -19 -8 -35 -13 -35
-11 0 3 -11 1 -23 -4 -14 -6 -30 -6 -38 0 -8 5 -11 9 -7 9 16 0 -192 199 -256
245 -35 25 -95 71 -118 90 -10 8 -18 11 -18 7 0 -4 -6 0 -13 8 -7 8 -26 23
-42 33 -92 55 -135 78 -141 77 -4 -1 -10 3 -14 10 -9 15 -79 53 -302 162 -74
36 -312 121 -373 134 -11 2 -32 6 -46 9 -49 11 -124 13 -149 4z"/>
</g>
</svg>
