<svg width="670" height="203" viewBox="0 0 670 203" fill="none" xmlns="http://www.w3.org/2000/svg">
<path d="M98.5898 0.453125V109.809C98.5898 119.691 96.4772 128.285 92.252 135.59C88.0983 142.823 82.2259 148.409 74.6348 152.348C67.1152 156.215 58.3783 158.148 48.4238 158.148C39.1855 158.148 30.9141 156.501 23.6094 153.207C16.3763 149.841 10.6471 144.9 6.42188 138.383C2.26823 131.866 0.191406 123.988 0.191406 114.75H28.1211C28.1927 118.904 29.1237 122.52 30.9141 125.6C32.776 128.607 35.2826 130.935 38.4336 132.582C41.6562 134.229 45.3444 135.053 49.498 135.053C56.373 135.053 61.6009 132.904 65.1816 128.607C68.7624 124.311 70.5885 118.044 70.6602 109.809V0.453125H98.5898ZM200.748 39.3398H227.926V156H201.607V135.375H200.318C197.454 142.107 193.014 147.478 186.998 151.488C181.054 155.499 173.785 157.504 165.191 157.504C157.529 157.504 150.761 155.785 144.889 152.348C139.088 148.839 134.54 143.79 131.246 137.201C128.023 130.613 126.412 122.735 126.412 113.568V39.3398H153.697V109.379C153.697 114.249 154.592 118.51 156.383 122.162C158.245 125.814 160.859 128.643 164.225 130.648C167.59 132.582 171.422 133.549 175.719 133.549C180.016 133.549 184.062 132.546 187.857 130.541C191.725 128.464 194.84 125.421 197.203 121.41C199.566 117.328 200.748 112.494 200.748 106.908V39.3398ZM281.744 156H254.459V39.3398H280.562V59.1055H281.852C284.716 52.3737 289.085 47.1458 294.957 43.4219C300.829 39.6979 308.062 37.8359 316.656 37.8359C324.749 37.8359 331.767 39.5547 337.711 42.9922C343.727 46.3581 348.346 51.3353 351.568 57.9238C354.863 64.5124 356.51 72.4258 356.51 81.6641V156H329.225V85.8535C329.225 80.6257 328.329 76.1855 326.539 72.5332C324.749 68.8092 322.171 65.9447 318.805 63.9395C315.439 61.9342 311.321 60.9316 306.451 60.9316C301.581 60.9316 297.285 61.9701 293.561 64.0469C289.837 66.1237 286.936 69.1673 284.859 73.1777C282.783 77.1882 281.744 81.9863 281.744 87.5723V156ZM410.221 156H382.936V0.453125H410.221V156ZM487.457 158.256C476.285 158.256 466.438 155.749 457.916 150.736C449.465 145.723 442.949 138.669 438.365 129.574C433.782 120.479 431.49 109.988 431.49 98.0996C431.49 86.0684 433.782 75.541 438.365 66.5176C442.949 57.4225 449.465 50.3685 457.916 45.3555C466.438 40.3424 476.285 37.8359 487.457 37.8359C498.701 37.8359 508.548 40.3424 516.998 45.3555C525.449 50.3685 531.93 57.4225 536.441 66.5176C540.953 75.541 543.209 86.0684 543.209 98.0996C543.209 109.988 540.953 120.479 536.441 129.574C531.93 138.669 525.449 145.723 516.998 150.736C508.548 155.749 498.701 158.256 487.457 158.256ZM487.672 136.449C493.688 136.449 498.772 134.766 502.926 131.4C507.151 127.963 510.302 123.344 512.379 117.543C514.456 111.742 515.494 105.225 515.494 97.9922C515.494 90.6875 514.456 84.1348 512.379 78.334C510.302 72.5332 507.151 67.9499 502.926 64.584C498.772 61.1465 493.688 59.4277 487.672 59.4277C481.513 59.4277 476.285 61.1465 471.988 64.584C467.691 67.9499 464.469 72.5332 462.32 78.334C460.172 84.1348 459.098 90.6875 459.098 97.9922C459.098 105.297 460.172 111.85 462.32 117.65C464.469 123.38 467.691 127.963 471.988 131.4C476.285 134.766 481.513 136.449 487.672 136.449ZM615.289 202.191C605.191 202.191 596.275 200.723 588.541 197.787C580.878 194.923 574.863 190.805 570.494 185.434C566.126 180.134 563.583 173.796 562.867 166.42H590.152C591.227 171.433 593.984 175.193 598.424 177.699C602.864 180.206 608.629 181.459 615.719 181.459C624.384 181.459 631.08 179.49 635.807 175.551C640.533 171.684 642.896 165.596 642.896 157.289V135.053H641.5C639.71 138.705 637.49 141.892 634.84 144.613C632.262 147.263 628.717 149.555 624.205 151.488C619.693 153.422 614.286 154.389 607.984 154.389C598.818 154.389 590.582 152.204 583.277 147.836C576.044 143.396 570.315 136.843 566.09 128.178C561.865 119.441 559.752 108.913 559.752 96.5957C559.752 84.2064 561.865 73.6074 566.09 64.7988C570.315 55.9186 576.08 49.2227 583.385 44.7109C590.689 40.1276 598.889 37.8359 607.984 37.8359C614.43 37.8359 619.872 38.9102 624.312 41.0586C628.753 43.1354 632.154 45.5345 634.518 48.2559C636.881 50.9056 639.244 54.3431 641.607 58.5684H643.004V39.3398H669.967V157.934C669.967 167.53 667.639 175.658 662.984 182.318C658.401 188.979 651.992 193.956 643.756 197.25C635.52 200.544 626.031 202.191 615.289 202.191ZM615.396 132.797C621.269 132.797 626.282 131.365 630.436 128.5C634.589 125.635 637.74 121.553 639.889 116.254C642.109 110.883 643.219 104.473 643.219 97.0254C643.219 89.5775 642.109 83.0964 639.889 77.582C637.74 72.0677 634.589 67.8066 630.436 64.7988C626.354 61.791 621.34 60.2871 615.396 60.2871C609.524 60.2871 604.511 61.8626 600.357 65.0137C596.204 68.0931 593.053 72.4258 590.904 78.0117C588.756 83.526 587.682 89.8639 587.682 97.0254C587.682 104.258 588.756 110.561 590.904 115.932C593.053 121.303 596.204 125.456 600.357 128.393C604.511 131.329 609.524 132.797 615.396 132.797Z" fill="white"/>
</svg>
